<?xml version="1.0" encoding="utf-8"?>
<!-- Generator: Adobe Illustrator 16.0.0, SVG Export Plug-In . SVG Version: 6.00 Build 0)  -->
<!DOCTYPE svg PUBLIC "-//W3C//DTD SVG 1.1//EN" "http://www.w3.org/Graphics/SVG/1.1/DTD/svg11.dtd">
<svg version="1.1" id="Layer_1" xmlns="http://www.w3.org/2000/svg" xmlns:xlink="http://www.w3.org/1999/xlink" x="0px" y="0px"
	 width="90px" height="90px" viewBox="0 0 90 90" enable-background="new 0 0 90 90" xml:space="preserve">
<path fill="#EFEFEF" d="M19.48,46.895c0,0.744-0.319,1.417-0.814,1.913c0.496,0.46,0.814,1.134,0.814,1.877v3.046
	c0,1.417-1.169,2.621-2.621,2.621h-1.913c-0.39,0-0.744-0.318-0.744-0.744V41.936c0-0.389,0.354-0.744,0.744-0.744h1.913
	c1.417,0,2.621,1.169,2.621,2.621V46.895z M18.028,43.849c0-0.673-0.531-1.168-1.169-1.168H15.69v5.384h1.169
	c0.638,0,1.169-0.532,1.169-1.17V43.849z M16.859,49.516H15.69v5.349h1.169c0.638,0,1.169-0.531,1.169-1.169v-3.046
	C18.028,50.047,17.497,49.516,16.859,49.516z"/>
<path fill="#EFEFEF" d="M26.458,46.895c0,0.744-0.283,1.417-0.779,1.877c0.496,0.461,0.779,1.17,0.779,1.913v5.278
	c0,0.212-0.142,0.354-0.354,0.354H25.36c-0.212,0-0.354-0.142-0.354-0.354v-5.278c0-0.673-0.531-1.169-1.169-1.169h-1.168v6.482
	c0,0.212-0.177,0.354-0.354,0.354h-0.708c-0.212,0-0.354-0.142-0.354-0.354V41.936c0-0.389,0.319-0.744,0.744-0.744h1.877
	c1.452,0,2.621,1.169,2.621,2.621v3.081H26.458z M25.006,43.849c0-0.673-0.531-1.168-1.169-1.168h-1.168v5.348h1.168
	c0.638,0,1.169-0.531,1.169-1.169V43.849z"/>
<path fill="#EFEFEF" d="M33.613,43.849v9.847c0,1.452-1.169,2.621-2.621,2.621s-2.621-1.169-2.621-2.621v-9.847
	c0-1.452,1.169-2.621,2.621-2.621C32.409,41.228,33.613,42.396,33.613,43.849z M32.161,43.849c0-0.673-0.531-1.168-1.169-1.168
	c-0.673,0-1.169,0.531-1.169,1.168v9.847c0,0.638,0.531,1.169,1.169,1.169s1.169-0.531,1.169-1.169V43.849z"/>
<path fill="#EFEFEF" d="M40.732,43.849v12.114c0,0.212-0.142,0.354-0.354,0.354h-0.744c-0.212,0-0.354-0.142-0.354-0.354V49.48
	h-2.337v6.482c0,0.212-0.142,0.354-0.354,0.354h-0.744c-0.177,0-0.354-0.142-0.354-0.354V43.849c0-1.452,1.169-2.621,2.621-2.621
	C39.528,41.228,40.732,42.396,40.732,43.849z M39.28,43.849c0-0.673-0.531-1.168-1.169-1.168c-0.673,0-1.168,0.531-1.168,1.168v4.18
	h2.337V43.849z"/>
<path fill="#EFEFEF" d="M47.852,48.524v5.206c0,1.417-1.169,2.621-2.621,2.621h-1.913c-0.39,0-0.744-0.318-0.744-0.744V44.699
	L47.852,48.524z M44.062,45.762v9.138h1.169c0.637,0,1.168-0.531,1.168-1.169v-6.27L44.062,45.762z"/>
<rect x="4.994" y="30.957" fill="none" width="47.214" height="8.394"/>
<g enable-background="new    ">
	<path fill="#E6E7E8" d="M7.551,32.149c0,0.338-0.111,0.598-0.333,0.778c-0.221,0.18-0.537,0.27-0.946,0.27H5.936v1.212h-0.53v-3.24
		h0.933c0.405,0,0.708,0.083,0.91,0.248S7.551,31.827,7.551,32.149z M5.936,32.751h0.281c0.272,0,0.471-0.047,0.598-0.142
		c0.127-0.095,0.191-0.243,0.191-0.443c0-0.186-0.057-0.325-0.171-0.417c-0.114-0.092-0.291-0.138-0.532-0.138H5.936V32.751z"/>
	<path fill="#E6E7E8" d="M9.082,33.115v1.294h-0.53v-3.24h0.915c0.418,0,0.728,0.078,0.929,0.235
		c0.201,0.156,0.301,0.393,0.301,0.709c0,0.403-0.209,0.691-0.629,0.862l0.916,1.434H10.38l-0.775-1.294H9.082z M9.082,32.676H9.45
		c0.247,0,0.425-0.046,0.536-0.138c0.111-0.091,0.167-0.227,0.167-0.408c0-0.183-0.06-0.314-0.18-0.395
		c-0.12-0.08-0.3-0.12-0.541-0.12h-0.35V32.676z"/>
	<path fill="#E6E7E8" d="M14.684,32.785c0,0.527-0.132,0.938-0.396,1.23s-0.637,0.439-1.12,0.439c-0.489,0-0.865-0.146-1.127-0.436
		c-0.262-0.291-0.394-0.703-0.394-1.238c0-0.535,0.132-0.945,0.396-1.232s0.64-0.43,1.129-0.43c0.481,0,0.854,0.146,1.117,0.437
		C14.552,31.846,14.684,32.256,14.684,32.785z M12.21,32.785c0,0.399,0.081,0.702,0.242,0.908c0.161,0.206,0.399,0.309,0.716,0.309
		c0.314,0,0.552-0.102,0.712-0.306c0.16-0.204,0.24-0.508,0.24-0.911c0-0.397-0.079-0.699-0.238-0.904
		c-0.159-0.205-0.396-0.308-0.71-0.308c-0.318,0-0.558,0.103-0.719,0.308C12.292,32.086,12.21,32.387,12.21,32.785z"/>
	<path fill="#E6E7E8" d="M15.323,35.313c-0.145,0-0.266-0.019-0.363-0.056v-0.445c0.124,0.031,0.232,0.046,0.324,0.046
		c0.29,0,0.434-0.183,0.434-0.549v-3.14h0.532v3.122c0,0.331-0.079,0.584-0.236,0.759C15.856,35.226,15.626,35.313,15.323,35.313z"
		/>
	<path fill="#E6E7E8" d="M19.276,34.409h-1.833v-3.24h1.833v0.447h-1.303v0.882h1.221v0.443h-1.221v1.018h1.303V34.409z"/>
	<path fill="#E6E7E8" d="M21.709,31.577c-0.304,0-0.544,0.108-0.718,0.323c-0.174,0.216-0.261,0.514-0.261,0.893
		c0,0.397,0.084,0.698,0.251,0.902c0.167,0.204,0.41,0.306,0.728,0.306c0.137,0,0.271-0.014,0.399-0.041s0.262-0.062,0.401-0.105
		v0.455c-0.254,0.096-0.542,0.144-0.864,0.144c-0.474,0-0.838-0.144-1.092-0.431c-0.254-0.287-0.381-0.698-0.381-1.233
		c0-0.337,0.062-0.631,0.185-0.884c0.124-0.252,0.302-0.446,0.535-0.581c0.233-0.134,0.508-0.202,0.822-0.202
		c0.331,0,0.637,0.07,0.917,0.208l-0.19,0.441c-0.109-0.052-0.225-0.097-0.347-0.136C21.972,31.597,21.843,31.577,21.709,31.577z"/>
	<path fill="#E6E7E8" d="M24.68,34.409h-0.53v-2.786h-0.953v-0.454h2.436v0.454H24.68V34.409z"/>
</g>
<path fill="#EFEFEF" d="M44.062,45.762"/>
<g>
	<path fill="#FEED57" d="M86.706,38.642H67.509l-6.729-17.993l-6.411,17.993H34.321l8.288,6.057l0,0v-0.531v-0.566v-1.629
		c0-0.39,0.354-0.744,0.744-0.744h1.913c1.452,0,2.621,1.168,2.621,2.621v2.94v0.602v0.566v0.496v0.071l1.771,1.274v-0.566v-0.566
		v-6.73c0-0.389,0.318-0.744,0.743-0.744h1.878c1.451,0,2.62,1.169,2.62,2.621v3.011c0,0.744-0.283,1.416-0.778,1.877
		c0.495,0.461,0.778,1.169,0.778,1.912v5.278c0,0.212-0.142,0.354-0.354,0.354h-0.743c-0.212,0-0.354-0.143-0.354-0.354v-5.207
		c0-0.673-0.531-1.169-1.168-1.169h-1.063c0.036,0.071,0.036,0.143,0,0.213c0,0.035-0.035,0.035-0.071,0.07l0,0v0.639
		c0.036-0.107,0.143-0.143,0.213-0.143c0.035,0,0.035,0,0.035,0c0.107,0.035,0.178,0.178,0.143,0.283
		c-0.035,0.106-0.106,0.143-0.213,0.143c-0.035,0-0.035,0-0.07,0c0,0-0.036,0-0.036-0.036c-0.035-0.035-0.071-0.071-0.071-0.106
		v0.354V51.5c0.036,0.07,0.036,0.105,0.036,0.177l-0.036,0.035v4.251c0,0.212-0.176,0.354-0.354,0.354h-0.744
		c-0.213,0-0.354-0.142-0.354-0.354v-0.815l0,0l0,0c-0.071-0.071-0.143-0.142-0.106-0.248c0-0.035,0.071-0.106,0.106-0.106v-0.991
		v-1.347L43.672,69.67l17.143-12.504l18.241,12.468l-7.084-19.587L86.706,38.642z M72.609,49.162c0,0.177-0.142,0.354-0.354,0.354
		h-0.319h-0.743l0,0l0,0l0,0c0.071,0.106,0.071,0.248-0.035,0.319c-0.036,0.035-0.071,0.035-0.142,0.035c-0.035,0-0.035,0-0.071,0
		c-0.035,0-0.071-0.035-0.106-0.071c-0.07-0.07-0.035-0.177,0.035-0.283h-0.566v5.349h1.984c0.212,0,0.354,0.177,0.354,0.354v0.708
		c0,0.212-0.142,0.354-0.354,0.354h-2.692c-0.425,0-0.743-0.318-0.743-0.744V41.936c0-0.389,0.318-0.744,0.743-0.744h2.692
		c0.212,0,0.354,0.177,0.354,0.354v0.744c0,0.212-0.142,0.354-0.354,0.354h-1.984v5.42h1.984c0.212,0,0.354,0.141,0.354,0.354l0,0
		v0.566v0.178H72.609z M45.655,66.057c0.035-0.106,0.142-0.142,0.248-0.142h0.035c0.106,0.035,0.177,0.177,0.142,0.283
		s-0.105,0.142-0.213,0.142c-0.035,0-0.035,0-0.07,0s-0.035-0.035-0.035-0.035C45.69,66.234,45.619,66.127,45.655,66.057z
		 M46.045,64.924c0.035-0.107,0.142-0.143,0.248-0.143h0.035c0.106,0.035,0.178,0.178,0.142,0.283
		c-0.035,0.107-0.106,0.143-0.212,0.143c-0.035,0-0.035,0-0.071,0c-0.035,0-0.035-0.035-0.035-0.035
		C46.08,65.101,46.01,65.029,46.045,64.924z M46.435,63.825c0.035-0.106,0.142-0.142,0.248-0.142h0.035
		c0.106,0.035,0.177,0.178,0.142,0.283c-0.035,0.106-0.105,0.142-0.213,0.142c-0.035,0-0.035,0-0.07,0c0,0-0.035,0-0.035-0.035
		C46.435,64.002,46.398,63.896,46.435,63.825z M46.824,62.691c0.035-0.105,0.142-0.141,0.248-0.141h0.035
		c0.106,0.035,0.178,0.177,0.142,0.283c-0.035,0.105-0.106,0.141-0.212,0.141c-0.036,0-0.036,0-0.071,0
		c-0.036,0-0.036-0.035-0.036-0.035C46.824,62.869,46.789,62.799,46.824,62.691z M47.214,61.559
		c0.035-0.106,0.142-0.142,0.212-0.142c0.035,0,0.035,0,0.035,0c0.107,0.035,0.178,0.177,0.143,0.283s-0.106,0.142-0.213,0.142
		c-0.035,0-0.035,0-0.07,0c0,0-0.035,0-0.035-0.035C47.214,61.771,47.178,61.664,47.214,61.559z M47.604,60.461
		c0.035-0.107,0.142-0.143,0.248-0.143h0.035c0.106,0.035,0.178,0.178,0.142,0.283c-0.036,0.107-0.106,0.143-0.212,0.143
		c-0.036,0-0.036,0-0.071,0c0,0-0.036,0-0.036-0.035C47.604,60.673,47.568,60.566,47.604,60.461z M47.993,59.327
		c0.035-0.106,0.142-0.142,0.247-0.142h0.036c0.106,0.035,0.177,0.177,0.142,0.283s-0.106,0.142-0.213,0.142
		c-0.035,0-0.035,0-0.07,0c0,0-0.035,0-0.035-0.035C47.993,59.539,47.957,59.434,47.993,59.327z M48.348,58.229
		c0.035-0.105,0.141-0.141,0.248-0.141h0.035c0.105,0.035,0.177,0.177,0.141,0.283c-0.035,0.105-0.105,0.141-0.212,0.141
		c-0.035,0-0.035,0-0.071,0c0,0-0.035,0-0.035-0.035C48.383,58.441,48.348,58.336,48.348,58.229z M48.736,57.096
		c0.035-0.106,0.143-0.142,0.248-0.142h0.035c0.107,0.035,0.178,0.177,0.143,0.283s-0.106,0.142-0.213,0.142
		c-0.035,0-0.035,0-0.07,0c0,0-0.036,0-0.036-0.035C48.771,57.309,48.701,57.202,48.736,57.096z M49.41,64.428
		c0.07,0.105,0.035,0.248-0.036,0.318c-0.035,0.035-0.071,0.035-0.142,0.035s-0.142-0.035-0.177-0.105V64.64
		c-0.036-0.106-0.036-0.212,0.071-0.247C49.197,64.321,49.303,64.356,49.41,64.428C49.374,64.428,49.374,64.428,49.41,64.428z
		 M48.453,65.136c0.071,0.106,0.035,0.248-0.035,0.319c-0.035,0.035-0.07,0.035-0.142,0.035s-0.142-0.035-0.177-0.106v-0.036
		c-0.035-0.105-0.035-0.212,0.07-0.247C48.24,65.029,48.348,65.064,48.453,65.136C48.418,65.136,48.418,65.136,48.453,65.136z
		 M47.497,65.844c0.071,0.106,0.035,0.248-0.036,0.319c-0.035,0.035-0.07,0.035-0.141,0.035c-0.071,0-0.143-0.035-0.178-0.106
		v-0.035c-0.035-0.106-0.035-0.213,0.071-0.248C47.285,65.738,47.391,65.773,47.497,65.844
		C47.461,65.809,47.461,65.809,47.497,65.844z M46.541,66.518c0.07,0.105,0.035,0.248-0.035,0.318
		c-0.036,0.035-0.071,0.035-0.143,0.035c-0.07,0-0.141-0.035-0.177-0.105v-0.036c-0.035-0.106-0.035-0.212,0.071-0.248
		C46.328,66.41,46.435,66.446,46.541,66.518C46.506,66.518,46.506,66.518,46.541,66.518z M45.549,67.014
		c0.035,0,0.07,0.035,0.106,0.07c0.035,0.07,0.071,0.142,0.035,0.213c-0.035,0.105-0.106,0.141-0.212,0.141
		c-0.035,0-0.035,0-0.071,0c-0.106-0.035-0.177-0.177-0.142-0.283c0.036-0.105,0.142-0.141,0.248-0.141H45.549z M54.864,39.351
		c0.035-0.106,0.142-0.142,0.248-0.142h0.035c0.106,0.035,0.177,0.177,0.142,0.283c-0.035,0.106-0.105,0.142-0.213,0.142
		c-0.035,0-0.035,0-0.07,0c-0.07-0.035-0.106-0.071-0.142-0.106C54.864,39.492,54.864,39.421,54.864,39.351z M67.58,39.457
		c0-0.106,0.105-0.213,0.212-0.213s0.213,0.106,0.213,0.213c0,0.035-0.036,0.071-0.036,0.071c-0.035,0.071-0.105,0.142-0.177,0.142
		c-0.106,0-0.142-0.071-0.177-0.142C67.615,39.492,67.58,39.457,67.58,39.457z M71.192,50.578c0.036,0,0.036-0.035,0.071-0.035
		c0.105-0.035,0.248,0,0.283,0.142c0.035,0.106-0.035,0.248-0.143,0.284c-0.035,0-0.035,0-0.07,0l0,0
		c-0.105,0-0.177-0.071-0.213-0.143C71.086,50.721,71.121,50.613,71.192,50.578z M71.617,51.677c0.035,0,0.035-0.036,0.071-0.036
		c0.106-0.035,0.247,0,0.283,0.143c0.035,0.105-0.036,0.248-0.142,0.283c-0.035,0-0.035,0-0.07,0l0,0
		c-0.107,0-0.178-0.071-0.213-0.143C71.512,51.818,71.547,51.748,71.617,51.677z M72.007,52.774c0.036,0,0.036-0.035,0.071-0.035
		c0.105-0.036,0.248,0.035,0.283,0.142c0.035,0.105-0.035,0.248-0.142,0.283c-0.036,0-0.036,0-0.071,0l0,0
		c-0.105,0-0.177-0.07-0.213-0.142C71.9,52.951,71.936,52.846,72.007,52.774z M72.396,53.908c0.035,0,0.035-0.035,0.071-0.035
		c0.106-0.036,0.247,0.035,0.283,0.141c0.035,0.107-0.036,0.248-0.142,0.283c-0.035,0-0.035,0-0.07,0l0,0
		c-0.107,0-0.178-0.07-0.213-0.141C72.291,54.05,72.326,53.979,72.396,53.908z M72.822,55.006c0.035,0,0.035-0.035,0.07-0.035
		c0.106-0.035,0.248,0.035,0.283,0.142s-0.035,0.248-0.142,0.283c-0.035,0-0.035,0-0.071,0l0,0c-0.105,0-0.177-0.071-0.212-0.142
		C72.715,55.147,72.751,55.076,72.822,55.006z M77.037,66.481c-0.036,0-0.036,0-0.071,0l0,0c-0.106,0-0.177-0.071-0.212-0.142
		c-0.036-0.105,0-0.177,0.07-0.248c0.035,0,0.035-0.035,0.07-0.035c0.106-0.035,0.248,0.035,0.283,0.142
		C77.214,66.34,77.143,66.446,77.037,66.481z M74.133,65.172c0-0.036,0-0.036,0-0.071c0.07-0.106,0.212-0.142,0.318-0.071
		c0.105,0.071,0.142,0.213,0.07,0.318c0,0.036-0.035,0.036-0.035,0.036c-0.035,0.035-0.07,0.071-0.142,0.071
		c-0.035,0-0.071,0-0.142-0.036C74.097,65.384,74.097,65.277,74.133,65.172z M75.088,65.844c0-0.035,0-0.035,0-0.07
		c0.071-0.106,0.213-0.142,0.319-0.07c0.106,0.07,0.142,0.212,0.071,0.318l-0.035,0.035c-0.036,0.035-0.071,0.07-0.143,0.07
		c-0.035,0-0.07,0-0.142-0.035S75.053,65.95,75.088,65.844z M76.08,66.518c0-0.036,0-0.036,0-0.071
		c0.071-0.106,0.213-0.142,0.318-0.071c0.107,0.071,0.143,0.213,0.071,0.319l-0.035,0.035c-0.036,0.036-0.071,0.071-0.142,0.071
		c-0.035,0-0.07,0-0.106-0.035C76.045,66.694,76.045,66.623,76.08,66.518z M76.646,65.384c-0.035,0-0.035,0-0.07,0l0,0
		c-0.106,0-0.178-0.071-0.213-0.142c-0.035-0.106,0-0.178,0.071-0.248c0.035,0,0.035-0.035,0.071-0.035
		c0.105-0.035,0.248,0.035,0.283,0.142S76.754,65.348,76.646,65.384z M76.223,64.285c-0.036,0-0.036,0-0.071,0l0,0
		c-0.106,0-0.177-0.07-0.213-0.141c-0.035-0.107,0-0.178,0.071-0.248c0.035,0,0.035-0.035,0.07-0.035
		c0.106-0.036,0.248,0,0.283,0.141C76.398,64.108,76.363,64.25,76.223,64.285z M75.832,63.152c-0.035,0-0.035,0-0.07,0l0,0
		c-0.106,0-0.178-0.07-0.213-0.142c-0.035-0.106,0-0.177,0.07-0.248c0.036,0,0.036-0.035,0.071-0.035
		c0.106-0.036,0.248,0,0.284,0.142C76.01,63.011,75.938,63.117,75.832,63.152z M75.443,62.055c-0.036,0-0.036,0-0.071,0l0,0
		c-0.106,0-0.177-0.071-0.213-0.143c-0.035-0.105,0-0.177,0.071-0.248c0.035,0,0.035-0.035,0.07-0.035
		c0.106-0.035,0.248,0.035,0.283,0.143C75.619,61.877,75.549,62.02,75.443,62.055z M75.018,60.957c-0.035,0-0.035,0-0.07,0l0,0
		c-0.106,0-0.178-0.071-0.213-0.143c-0.035-0.105,0-0.177,0.07-0.248c0.036,0,0.036-0.035,0.071-0.035
		c0.106-0.035,0.248,0.035,0.283,0.142C75.195,60.779,75.159,60.885,75.018,60.957z M74.628,59.822c-0.035,0-0.035,0-0.071,0l0,0
		c-0.105,0-0.176-0.07-0.212-0.141c-0.035-0.106,0-0.178,0.071-0.248c0.035,0,0.035-0.035,0.07-0.035
		c0.106-0.036,0.248,0.035,0.283,0.141C74.805,59.682,74.734,59.787,74.628,59.822z M74.238,58.725c-0.035,0-0.035,0-0.07,0l0,0
		c-0.106,0-0.178-0.07-0.213-0.142c-0.035-0.106,0-0.177,0.07-0.247c0.036,0,0.036-0.036,0.071-0.036
		c0.106-0.035,0.248,0,0.284,0.142C74.416,58.548,74.345,58.689,74.238,58.725z M73.813,57.627c-0.036,0-0.036,0-0.071,0l0,0
		c-0.105,0-0.177-0.07-0.212-0.142c-0.036-0.106,0-0.177,0.071-0.248c0.035,0,0.035-0.035,0.07-0.035
		c0.105-0.036,0.248,0.035,0.283,0.142C73.99,57.449,73.92,57.557,73.813,57.627z M73.424,56.494c-0.035,0-0.035,0-0.07,0l0,0
		c-0.107,0-0.178-0.071-0.213-0.143c-0.035-0.105,0-0.177,0.07-0.248c0.035,0,0.035-0.035,0.071-0.035
		c0.106-0.035,0.248,0,0.283,0.142C73.602,56.316,73.53,56.458,73.424,56.494z M73.176,64.463c0.07-0.106,0.213-0.142,0.318-0.07
		c0.107,0.07,0.143,0.212,0.071,0.318l-0.035,0.035c-0.036,0.035-0.071,0.07-0.142,0.07c-0.035,0-0.071,0-0.106-0.035
		c-0.071-0.07-0.106-0.142-0.071-0.248C73.141,64.498,73.141,64.463,73.176,64.463z M72.539,64.037l-0.036,0.036
		c-0.035,0.035-0.071,0.071-0.142,0.071c-0.035,0-0.07,0-0.142-0.036c-0.071-0.071-0.106-0.142-0.071-0.247c0-0.036,0-0.036,0-0.071
		c0.071-0.106,0.213-0.142,0.319-0.071C72.609,63.79,72.609,63.932,72.539,64.037z M71.582,63.365L71.547,63.4
		c-0.035,0.035-0.071,0.07-0.143,0.07c-0.035,0-0.07,0-0.141-0.035c-0.071-0.07-0.106-0.142-0.071-0.248c0-0.035,0-0.035,0-0.07
		c0.071-0.106,0.212-0.143,0.319-0.071C71.617,63.152,71.652,63.259,71.582,63.365z M70.59,62.691l-0.035,0.036
		c-0.035,0.035-0.07,0.071-0.142,0.071c-0.035,0-0.071,0-0.142-0.036c-0.07-0.071-0.106-0.142-0.07-0.248c0-0.035,0-0.035,0-0.071
		c0.07-0.105,0.212-0.141,0.318-0.07C70.626,62.479,70.661,62.621,70.59,62.691z M69.634,62.055l-0.035,0.035
		c-0.036,0.035-0.071,0.07-0.142,0.07c-0.035,0-0.07,0-0.142-0.035c-0.071-0.07-0.106-0.142-0.071-0.248c0-0.035,0-0.035,0-0.07
		c0.071-0.106,0.213-0.143,0.318-0.071C69.67,61.807,69.705,61.948,69.634,62.055z M61.452,56.529c0-0.035,0-0.035,0-0.071
		c0.071-0.106,0.212-0.142,0.319-0.071c0.105,0.071,0.141,0.213,0.07,0.319l-0.035,0.035c-0.035,0.036-0.071,0.071-0.143,0.071
		c-0.035,0-0.07,0-0.141-0.035C61.417,56.706,61.417,56.6,61.452,56.529z M61.311,24.581c0.035-0.036,0.035-0.036,0.07-0.036
		c0.107-0.035,0.248,0,0.283,0.142c0.036,0.106,0,0.248-0.141,0.284c-0.035,0-0.071,0-0.071,0l0,0c-0.071,0-0.177-0.071-0.212-0.142
		C61.204,24.723,61.24,24.652,61.311,24.581z M61.7,25.679c0.035-0.035,0.035-0.035,0.071-0.035c0.105-0.036,0.248,0,0.283,0.142
		c0.035,0.106,0,0.248-0.143,0.283c-0.035,0-0.035,0-0.07,0l0,0c-0.07,0-0.178-0.071-0.213-0.142
		C61.629,25.856,61.664,25.75,61.7,25.679z M62.125,26.812c0.035-0.036,0.035-0.036,0.07-0.071c0.107-0.035,0.248,0,0.284,0.142
		c0.035,0.106,0,0.248-0.142,0.283c-0.035,0-0.035,0-0.071,0l0,0c-0.071,0-0.177-0.071-0.212-0.142
		C62.055,26.954,62.09,26.883,62.125,26.812z M66.518,38.217c-0.036,0-0.036,0-0.071,0l0,0c-0.071,0-0.177-0.071-0.212-0.142
		c-0.036-0.071,0-0.177,0.07-0.212c0.035-0.036,0.035-0.036,0.07-0.071c0.106-0.035,0.248,0,0.283,0.142
		C66.658,38.076,66.623,38.182,66.518,38.217z M63.294,42.68c-0.212,0-0.354-0.142-0.354-0.354v-0.744
		c0-0.177,0.143-0.354,0.354-0.354h3.507c0.213,0,0.354,0.177,0.354,0.354v0.744c0,0.213-0.141,0.354-0.354,0.354h-1.027v13.283
		c0,0.212-0.142,0.354-0.354,0.354h-0.743c-0.213,0-0.354-0.142-0.354-0.354V42.68H63.294z M66.092,37.119c-0.035,0-0.035,0-0.07,0
		l0,0c-0.071,0-0.178-0.071-0.213-0.142s0-0.177,0.07-0.248c0.036-0.035,0.036-0.035,0.071-0.035c0.106-0.036,0.248,0,0.284,0.142
		C66.27,36.942,66.198,37.084,66.092,37.119z M65.667,36.021c-0.035,0-0.035,0-0.071,0l0,0c-0.07,0-0.177-0.071-0.212-0.142
		c-0.036-0.071,0-0.177,0.071-0.248c0.035-0.036,0.035-0.036,0.07-0.036c0.106-0.036,0.248,0,0.283,0.142
		C65.844,35.844,65.773,35.986,65.667,36.021z M65.277,34.923c-0.035,0-0.035,0-0.07,0l0,0c-0.071,0-0.178-0.071-0.213-0.142
		s0-0.177,0.07-0.248c0.036-0.036,0.036-0.036,0.071-0.036c0.106-0.035,0.248,0,0.283,0.142
		C65.419,34.746,65.384,34.853,65.277,34.923z M64.853,33.79c-0.036,0-0.036,0-0.071,0l0,0c-0.07,0-0.177-0.071-0.213-0.142
		c-0.035-0.071,0-0.177,0.071-0.248c0.036-0.036,0.036-0.036,0.071-0.036c0.105-0.035,0.248,0,0.283,0.142
		S64.959,33.754,64.853,33.79z M64.428,32.692c-0.035,0-0.035,0-0.071,0l0,0c-0.071,0-0.177-0.071-0.212-0.142
		c-0.036-0.071,0-0.177,0.07-0.248c0.035-0.036,0.035-0.036,0.07-0.036c0.107-0.035,0.248,0,0.283,0.142
		C64.604,32.515,64.533,32.656,64.428,32.692z M64.002,31.594c-0.035,0-0.035,0-0.07,0l0,0c-0.07,0-0.178-0.071-0.213-0.142
		s0-0.177,0.071-0.248c0.035-0.035,0.035-0.035,0.071-0.035c0.105-0.036,0.247,0,0.283,0.142
		C64.18,31.417,64.145,31.559,64.002,31.594z M63.613,30.496c-0.036,0-0.071,0-0.071,0l0,0c-0.071,0-0.177-0.071-0.212-0.142
		c-0.036-0.071,0-0.177,0.07-0.248c0.035-0.036,0.035-0.036,0.07-0.036c0.106-0.035,0.248,0,0.283,0.142
		C63.79,30.319,63.719,30.46,63.613,30.496z M63.188,29.398c-0.035,0-0.035,0-0.07,0l0,0c-0.071,0-0.178-0.071-0.213-0.142
		s0-0.177,0.07-0.248c0.036-0.036,0.036-0.036,0.071-0.036c0.106-0.035,0.248,0,0.284,0.142
		C63.365,29.221,63.294,29.327,63.188,29.398z M62.763,28.265c-0.036,0-0.036,0-0.071,0l0,0c-0.07,0-0.177-0.071-0.212-0.142
		c-0.036-0.071,0-0.177,0.071-0.248c0.035-0.036,0.035-0.036,0.07-0.036c0.105-0.035,0.248,0,0.283,0.142
		C62.939,28.087,62.869,28.229,62.763,28.265z M62.408,57.202c0-0.036,0-0.036,0-0.071c0.071-0.105,0.213-0.142,0.318-0.07
		c0.107,0.07,0.143,0.213,0.071,0.318l-0.035,0.035c-0.036,0.035-0.071,0.071-0.142,0.071c-0.035,0-0.07,0-0.142-0.036
		C62.408,57.379,62.373,57.273,62.408,57.202z M63.4,57.84c0-0.035,0-0.035,0-0.071c0.07-0.106,0.213-0.142,0.318-0.071
		c0.106,0.071,0.143,0.213,0.071,0.319l-0.036,0.035c-0.035,0.036-0.07,0.071-0.141,0.071c-0.036,0-0.071,0-0.143-0.035
		C63.365,58.052,63.365,57.945,63.4,57.84z M64.356,58.512c0-0.035,0-0.035,0-0.07c0.071-0.105,0.212-0.142,0.319-0.07
		c0.105,0.07,0.141,0.212,0.07,0.318l-0.035,0.035c-0.035,0.035-0.071,0.071-0.143,0.071c-0.035,0-0.07,0-0.141-0.036
		C64.356,58.725,64.356,58.619,64.356,58.512z M65.348,59.186c0-0.035,0-0.035,0-0.07c0.071-0.107,0.213-0.143,0.319-0.071
		s0.142,0.212,0.071,0.318l-0.035,0.036c-0.036,0.035-0.071,0.07-0.143,0.07c-0.035,0-0.07,0-0.142-0.035
		C65.348,59.362,65.312,59.291,65.348,59.186z M66.305,59.858c0-0.036,0-0.036,0-0.071c0.07-0.105,0.213-0.141,0.318-0.07
		c0.106,0.07,0.143,0.213,0.071,0.318l-0.036,0.035c-0.035,0.036-0.07,0.071-0.141,0.071c-0.036,0-0.071,0-0.143-0.035
		C66.305,60.035,66.305,59.93,66.305,59.858z M67.297,60.531c0-0.035,0-0.035,0-0.07c0.07-0.107,0.212-0.143,0.318-0.071
		c0.105,0.071,0.142,0.212,0.07,0.319l-0.035,0.035c-0.035,0.035-0.07,0.07-0.142,0.07c-0.035,0-0.071,0-0.142-0.035
		C67.297,60.709,67.261,60.602,67.297,60.531z M68.252,61.204c0-0.035,0-0.035,0-0.071c0.071-0.105,0.213-0.141,0.319-0.07
		s0.142,0.213,0.071,0.318l-0.035,0.036c-0.036,0.035-0.071,0.071-0.143,0.071c-0.035,0-0.07,0-0.142-0.036
		C68.252,61.381,68.252,61.275,68.252,61.204z M68.748,39.457c0-0.106,0.107-0.213,0.213-0.213c0.106,0,0.213,0.106,0.213,0.213
		c0,0.035-0.035,0.071-0.035,0.071c-0.036,0.071-0.107,0.142-0.178,0.142c-0.105,0-0.142-0.071-0.177-0.142
		C68.784,39.492,68.748,39.457,68.748,39.457z M69.953,39.457c0-0.106,0.105-0.213,0.212-0.213s0.213,0.106,0.213,0.213
		c0,0.035-0.036,0.071-0.036,0.071c-0.035,0.071-0.105,0.142-0.177,0.142c-0.106,0-0.142-0.071-0.177-0.142
		C69.953,39.492,69.953,39.457,69.953,39.457z M71.121,39.457c0-0.106,0.107-0.213,0.213-0.213c0.106,0,0.213,0.106,0.213,0.213
		c0,0.035-0.035,0.071-0.035,0.071c-0.036,0.071-0.107,0.142-0.178,0.142c-0.105,0-0.142-0.071-0.177-0.142
		C71.157,39.492,71.121,39.457,71.121,39.457z M72.326,39.457c0-0.106,0.105-0.213,0.213-0.213c0.105,0,0.212,0.106,0.212,0.213
		c0,0.035-0.036,0.071-0.036,0.071c-0.035,0.071-0.105,0.142-0.176,0.142c-0.071,0-0.143-0.071-0.178-0.142
		C72.326,39.492,72.326,39.457,72.326,39.457z M73.494,39.457c0-0.106,0.107-0.213,0.213-0.213c0.106,0,0.213,0.106,0.213,0.213
		c0,0.035-0.035,0.071-0.035,0.071c-0.036,0.071-0.107,0.142-0.178,0.142s-0.142-0.071-0.177-0.142
		C73.53,39.492,73.494,39.457,73.494,39.457z M74.664,39.457c0-0.106,0.105-0.213,0.212-0.213s0.212,0.106,0.212,0.213
		c0,0.035-0.035,0.071-0.035,0.071c-0.035,0.071-0.105,0.142-0.177,0.142s-0.142-0.071-0.177-0.142
		C74.699,39.492,74.664,39.457,74.664,39.457z M75.867,39.457c0-0.106,0.107-0.213,0.213-0.213c0.106,0,0.213,0.106,0.213,0.213
		c0,0.035-0.035,0.071-0.035,0.071c-0.035,0.071-0.106,0.142-0.178,0.142c-0.07,0-0.142-0.071-0.177-0.142
		C75.867,39.492,75.867,39.457,75.867,39.457z M77.037,39.457c0-0.106,0.105-0.213,0.212-0.213s0.212,0.106,0.212,0.213
		c0,0.035-0.035,0.071-0.035,0.071c-0.035,0.071-0.105,0.142-0.177,0.142s-0.142-0.071-0.177-0.142
		C77.072,39.492,77.037,39.457,77.037,39.457z M78.205,39.457c0-0.106,0.106-0.213,0.213-0.213s0.213,0.106,0.213,0.213
		c0,0.035-0.035,0.071-0.035,0.071c-0.036,0.071-0.107,0.142-0.178,0.142s-0.142-0.071-0.178-0.142
		C78.24,39.492,78.205,39.457,78.205,39.457z M79.41,39.457c0-0.106,0.105-0.213,0.212-0.213s0.213,0.106,0.213,0.213
		c0,0.035-0.036,0.071-0.036,0.071c-0.035,0.071-0.105,0.142-0.177,0.142s-0.142-0.071-0.177-0.142
		C79.41,39.492,79.41,39.457,79.41,39.457z M80.578,39.457c0-0.106,0.106-0.213,0.213-0.213s0.213,0.106,0.213,0.213
		c0,0.035-0.035,0.071-0.035,0.071c-0.036,0.071-0.107,0.142-0.178,0.142s-0.142-0.071-0.178-0.142
		C80.613,39.492,80.578,39.457,80.578,39.457z M81.748,39.457c0-0.106,0.105-0.213,0.212-0.213s0.212,0.106,0.212,0.213
		c0,0.035-0.035,0.071-0.035,0.071c-0.035,0.071-0.105,0.142-0.177,0.142s-0.142-0.071-0.177-0.142
		C81.783,39.492,81.748,39.457,81.748,39.457z M82.951,39.457c0-0.106,0.106-0.213,0.213-0.213s0.213,0.106,0.213,0.213
		c0,0.035-0.035,0.071-0.035,0.071c-0.036,0.071-0.107,0.142-0.178,0.142s-0.142-0.071-0.178-0.142
		C82.951,39.492,82.951,39.457,82.951,39.457z M83.306,40.413c-0.035,0.036-0.106,0.036-0.142,0.036
		c-0.07,0-0.142-0.036-0.178-0.071l0,0c-0.07-0.106-0.07-0.248,0.036-0.319s0.248-0.071,0.319,0.035l0,0
		C83.412,40.201,83.377,40.342,83.306,40.413z M82.35,41.157c-0.035,0.035-0.07,0.035-0.142,0.035s-0.142-0.035-0.177-0.071l0,0
		c-0.071-0.106-0.071-0.248,0.035-0.319c0.105-0.071,0.248-0.071,0.318,0.036l0,0C82.455,40.944,82.455,41.086,82.35,41.157z
		 M81.429,41.865c-0.036,0.036-0.071,0.036-0.142,0.036c-0.071,0-0.143-0.036-0.178-0.071l0,0c-0.07-0.106-0.07-0.248,0.035-0.319
		c0.107-0.071,0.248-0.071,0.319,0.036l0,0C81.535,41.653,81.5,41.794,81.429,41.865z M80.473,42.609
		c-0.035,0.035-0.071,0.035-0.143,0.035c-0.07,0-0.141-0.035-0.177-0.071l0,0c-0.071-0.106-0.071-0.248,0.036-0.319
		c0.105-0.071,0.248-0.071,0.318,0.036l0,0C80.613,42.396,80.578,42.503,80.473,42.609z M79.551,43.317
		c-0.035,0.036-0.07,0.036-0.141,0.036c-0.071,0-0.143-0.036-0.178-0.071l0,0c-0.07-0.106-0.07-0.248,0.035-0.319
		c0.106-0.071,0.248-0.071,0.319,0.036l0,0C79.658,43.105,79.658,43.247,79.551,43.317z M78.631,44.026
		c-0.035,0.036-0.106,0.036-0.143,0.036c-0.07,0-0.141-0.036-0.177-0.071l0,0c-0.071-0.106-0.071-0.248,0.036-0.319
		c0.105-0.071,0.248-0.071,0.318,0.035l0,0C78.736,43.813,78.701,43.955,78.631,44.026z M77.674,44.77
		c-0.035,0.036-0.105,0.036-0.142,0.036c-0.071,0-0.142-0.036-0.177-0.071l0,0c-0.07-0.106-0.07-0.248,0.035-0.319
		c0.106-0.071,0.248-0.071,0.318,0.036l0,0C77.78,44.557,77.78,44.699,77.674,44.77z M76.754,45.478
		c-0.036,0.036-0.071,0.036-0.143,0.036c-0.07,0-0.142-0.036-0.177-0.071l0,0c-0.071-0.106-0.071-0.248,0.035-0.319
		s0.248-0.071,0.319,0.035l0,0C76.859,45.266,76.859,45.407,76.754,45.478z M75.797,46.223c-0.035,0.035-0.07,0.035-0.142,0.035
		s-0.142-0.035-0.177-0.071l0,0c-0.071-0.106-0.071-0.248,0.035-0.319c0.105-0.07,0.248-0.07,0.318,0.036l0,0
		C75.938,46.01,75.903,46.151,75.797,46.223z M74.876,46.93c-0.035,0.036-0.071,0.036-0.142,0.036s-0.142-0.036-0.178-0.071l0,0
		c-0.07-0.105-0.07-0.248,0.036-0.318s0.248-0.07,0.319,0.035l0,0C74.982,46.718,74.982,46.859,74.876,46.93z M73.955,47.639
		c-0.035,0.035-0.07,0.035-0.142,0.035s-0.142-0.035-0.177-0.07l0,0c-0.071-0.106-0.071-0.248,0.035-0.318
		c0.105-0.071,0.248-0.071,0.318,0.035l0,0C74.062,47.461,74.025,47.568,73.955,47.639z M72.715,48.348
		c-0.07-0.107-0.07-0.248,0.036-0.319s0.248-0.071,0.319,0.036l0,0c0.07,0.105,0.07,0.247-0.036,0.318
		c-0.035,0.035-0.071,0.035-0.142,0.035S72.751,48.383,72.715,48.348L72.715,48.348z M84.227,39.705
		c-0.035,0.035-0.07,0.035-0.142,0.035s-0.142-0.035-0.177-0.071l0,0c-0.035-0.036-0.035-0.071-0.035-0.142s0.035-0.142,0.07-0.177
		c0.106-0.071,0.248-0.071,0.318,0.036C84.333,39.492,84.333,39.634,84.227,39.705z M66.906,39.351c-0.035,0-0.035,0-0.07,0l0,0
		c-0.07,0-0.178-0.071-0.213-0.142s0-0.177,0.071-0.212c0.035-0.036,0.035-0.036,0.071-0.071c0.105-0.036,0.248,0,0.283,0.142
		C67.084,39.173,67.049,39.28,66.906,39.351z M60.814,23.271c0.035,0,0.07,0,0.106,0c0.106,0.035,0.177,0.177,0.142,0.283
		c0,0.036-0.035,0.071-0.07,0.106c-0.035,0.035-0.071,0.035-0.107,0.035c-0.035,0-0.035,0-0.07,0s-0.07-0.035-0.07-0.071
		c-0.035-0.071-0.071-0.142-0.071-0.212C60.638,23.306,60.709,23.271,60.814,23.271C60.779,23.271,60.814,23.271,60.814,23.271z
		 M60.354,24.545c0.107,0.036,0.178,0.177,0.143,0.283c-0.035,0.106-0.106,0.142-0.213,0.142c-0.035,0-0.035,0-0.07,0l0,0
		c-0.106-0.036-0.178-0.177-0.106-0.284C60.106,24.545,60.213,24.51,60.354,24.545C60.354,24.545,60.354,24.51,60.354,24.545z
		 M59.93,25.714c0.105,0.035,0.177,0.177,0.141,0.283c-0.035,0.106-0.105,0.142-0.212,0.142c-0.036,0-0.036,0-0.071,0l0,0
		c-0.105-0.035-0.141-0.177-0.105-0.283C59.682,25.75,59.822,25.679,59.93,25.714L59.93,25.714z M59.504,26.989
		c0.106,0.036,0.178,0.177,0.143,0.284c-0.036,0.106-0.107,0.142-0.213,0.142c-0.035,0-0.035,0-0.071,0c0,0-0.035,0-0.035-0.036
		c-0.071-0.071-0.142-0.142-0.106-0.248c0.035-0.106,0.142-0.142,0.213-0.142C59.469,26.989,59.504,26.989,59.504,26.989z
		 M59.115,28.087c0.105,0.036,0.176,0.177,0.141,0.283c-0.035,0.106-0.105,0.142-0.213,0.142c-0.035,0-0.035,0-0.07,0
		c0,0-0.035,0-0.035-0.035c-0.07-0.071-0.142-0.142-0.106-0.248c0.036-0.106,0.142-0.142,0.248-0.142H59.115z M58.725,29.221
		c0.106,0.036,0.178,0.177,0.143,0.283c-0.036,0.106-0.107,0.142-0.213,0.142c-0.035,0-0.035,0-0.071,0
		c-0.035,0-0.035-0.036-0.035-0.036c-0.071-0.071-0.142-0.142-0.106-0.248c0.035-0.106,0.142-0.142,0.248-0.142H58.725z
		 M58.336,30.319c0.105,0.035,0.176,0.177,0.141,0.283c-0.035,0.106-0.105,0.142-0.212,0.142c-0.036,0-0.036,0-0.071,0
		c0,0-0.035,0-0.035-0.035c-0.07-0.071-0.142-0.142-0.106-0.248c0.036-0.106,0.142-0.142,0.213-0.142
		C58.3,30.319,58.3,30.319,58.336,30.319z M57.945,31.452c0.106,0.036,0.178,0.177,0.143,0.283
		c-0.036,0.106-0.107,0.142-0.213,0.142c-0.035,0-0.035,0-0.07,0c0,0-0.036,0-0.036-0.036c-0.071-0.071-0.142-0.142-0.106-0.248
		c0.035-0.106,0.143-0.142,0.213-0.142C57.91,31.452,57.91,31.417,57.945,31.452z M57.521,32.55
		c0.106,0.035,0.177,0.177,0.142,0.283s-0.105,0.142-0.213,0.142c-0.035,0-0.035,0-0.07,0c0,0-0.035,0-0.035-0.035
		c-0.07-0.071-0.143-0.142-0.106-0.248s0.142-0.142,0.248-0.142H57.521z M57.131,33.684c0.106,0.036,0.178,0.177,0.143,0.283
		c-0.036,0.106-0.107,0.142-0.213,0.142c-0.035,0-0.035,0-0.071,0c0,0-0.035,0-0.035-0.035c-0.071-0.071-0.142-0.142-0.106-0.248
		c0.035-0.106,0.142-0.142,0.248-0.142C57.096,33.648,57.131,33.648,57.131,33.684z M56.741,34.782
		c0.106,0.035,0.177,0.177,0.142,0.283s-0.105,0.142-0.213,0.142c-0.035,0-0.035,0-0.07,0c0,0-0.035,0-0.035-0.035
		c-0.07-0.071-0.142-0.142-0.106-0.248c0.036-0.106,0.142-0.142,0.248-0.142H56.741z M57.662,58.123
		c0.071-0.071,0.178-0.035,0.283,0.035c0,0,0.035,0,0.035,0.035c0.071,0.106,0.036,0.248-0.035,0.318
		c-0.035,0.036-0.07,0.036-0.141,0.036c-0.071,0-0.143-0.036-0.178-0.106v-0.035C57.592,58.3,57.592,58.193,57.662,58.123z
		 M58.619,57.414c0.07-0.07,0.177-0.035,0.283,0.035c0,0,0.035,0,0.035,0.036c0.07,0.106,0.035,0.248-0.035,0.319
		c-0.035,0.035-0.071,0.035-0.143,0.035c-0.07,0-0.141-0.035-0.177-0.106v-0.036C58.512,57.592,58.548,57.485,58.619,57.414z
		 M59.575,56.741c0.071-0.071,0.177-0.035,0.283,0.036c0,0,0.035,0,0.035,0.035c0.071,0.105,0.036,0.248-0.035,0.318
		c-0.036,0.035-0.071,0.035-0.142,0.035s-0.142-0.035-0.178-0.105v-0.035C59.469,56.883,59.504,56.777,59.575,56.741z
		 M57.025,58.867c0.07,0.105,0.035,0.248-0.036,0.318c-0.035,0.035-0.071,0.035-0.142,0.035s-0.142-0.035-0.178-0.105v-0.036
		c-0.035-0.106-0.035-0.212,0.071-0.248C56.812,58.76,56.918,58.796,57.025,58.867C56.989,58.831,57.025,58.867,57.025,58.867z
		 M55.572,38.111c0.106,0.036,0.178,0.177,0.143,0.284c-0.036,0.106-0.107,0.142-0.213,0.142c-0.035,0-0.035,0-0.07,0
		c0,0-0.036,0-0.036-0.036c-0.071-0.071-0.142-0.142-0.106-0.248c0.035-0.106,0.143-0.142,0.213-0.142
		C55.537,38.111,55.537,38.111,55.572,38.111z M55.679,37.155c0.036-0.106,0.142-0.142,0.248-0.142h0.036
		c0.105,0.035,0.176,0.177,0.141,0.283c-0.035,0.106-0.105,0.142-0.212,0.142c-0.036,0-0.036,0-0.071,0s-0.035-0.036-0.035-0.036
		C55.679,37.332,55.644,37.226,55.679,37.155z M56.068,36.021c0.035-0.106,0.142-0.142,0.248-0.142h0.035
		c0.106,0.036,0.178,0.177,0.143,0.284c-0.036,0.106-0.107,0.142-0.213,0.142c-0.035,0-0.035,0-0.071,0c0,0-0.035,0-0.035-0.036
		C56.068,36.234,56.033,36.127,56.068,36.021z M55.75,59.504c0.07-0.07,0.177-0.035,0.283,0.035c0,0,0.035,0,0.035,0.036
		c0.07,0.106,0.035,0.247-0.035,0.318c-0.035,0.036-0.07,0.036-0.142,0.036s-0.142-0.036-0.177-0.107v-0.035
		C55.679,59.682,55.679,59.575,55.75,59.504z M60.496,56.352v-0.035c-0.035-0.07-0.035-0.178,0.035-0.248c0-0.035,0-0.07,0-0.07
		V49.48h-2.338v6.482c0,0.212-0.142,0.354-0.354,0.354h-0.744c-0.178,0-0.354-0.142-0.354-0.354V43.849
		c0-1.452,1.169-2.621,2.621-2.621c1.417,0,2.621,1.168,2.621,2.621v12.114c0,0.212-0.142,0.354-0.354,0.354h-0.46h-0.284H60.85
		c0,0.035-0.035,0.07-0.035,0.07c-0.035,0.036-0.07,0.036-0.142,0.036S60.531,56.387,60.496,56.352z M77.426,67.367
		c-0.035,0.07-0.105,0.106-0.177,0.106c-0.035,0-0.071,0-0.142-0.036c-0.07-0.07-0.106-0.141-0.07-0.248c0-0.035,0-0.035,0-0.07
		c0.035-0.035,0.07-0.035,0.105-0.07c0.071-0.035,0.143-0.035,0.213,0C77.461,67.119,77.497,67.261,77.426,67.367z M49.551,39.528
		c-0.035,0.071-0.105,0.142-0.177,0.142c-0.106,0-0.142-0.071-0.177-0.142c0-0.036-0.035-0.071-0.035-0.071
		c0-0.106,0.105-0.213,0.212-0.213s0.213,0.106,0.213,0.213C49.587,39.457,49.587,39.492,49.551,39.528z M47.957,39.457
		c0-0.106,0.107-0.213,0.213-0.213c0.106,0,0.213,0.106,0.213,0.213c0,0.035-0.035,0.071-0.035,0.071
		c-0.036,0.071-0.107,0.142-0.178,0.142c-0.105,0-0.142-0.071-0.177-0.142C47.993,39.492,47.957,39.457,47.957,39.457z
		 M42.468,39.528c-0.036,0.071-0.106,0.142-0.177,0.142s-0.142-0.071-0.177-0.142c0-0.036-0.035-0.071-0.035-0.071
		c0-0.106,0.106-0.213,0.212-0.213c0.106,0,0.212,0.106,0.212,0.213C42.503,39.457,42.503,39.492,42.468,39.528z M38.323,39.457
		c0-0.106,0.106-0.213,0.213-0.213c0.106,0,0.212,0.106,0.212,0.213c0,0.035-0.036,0.035-0.036,0.071
		c-0.035,0.071-0.106,0.142-0.177,0.142c-0.106,0-0.142-0.071-0.177-0.142C38.323,39.492,38.323,39.492,38.323,39.457z
		 M39.705,39.457c0-0.106,0.106-0.213,0.212-0.213c0.106,0,0.212,0.106,0.212,0.213c0,0.035-0.036,0.071-0.036,0.071
		c-0.035,0.071-0.106,0.142-0.177,0.142s-0.142-0.071-0.177-0.142C39.74,39.492,39.705,39.457,39.705,39.457z M40.874,39.457
		c0-0.106,0.106-0.213,0.212-0.213c0.106,0,0.213,0.106,0.213,0.213c0,0.035-0.036,0.071-0.036,0.071
		c-0.035,0.071-0.106,0.142-0.177,0.142c-0.071,0-0.142-0.071-0.177-0.142C40.909,39.492,40.874,39.457,40.874,39.457z
		 M37.367,39.528c0,0.071-0.071,0.142-0.142,0.142c-0.036,0-0.036,0-0.071,0c-0.106,0-0.212-0.106-0.212-0.212
		c0-0.106,0.106-0.213,0.212-0.213c0.106,0,0.212,0.106,0.212,0.213C37.402,39.492,37.367,39.528,37.367,39.528z M38.182,40.378
		C38.182,40.342,38.182,40.342,38.182,40.378c0.071-0.106,0.213-0.142,0.319-0.071c0.106,0.071,0.106,0.212,0.036,0.319l0,0
		c-0.036,0.035-0.106,0.071-0.177,0.071c-0.036,0-0.106,0-0.142-0.036C38.146,40.59,38.111,40.449,38.182,40.378z M39.351,41.086
		c0.071-0.106,0.212-0.106,0.319-0.035s0.106,0.212,0.036,0.319c-0.036,0.035-0.036,0.035-0.071,0.071
		c-0.035,0.035-0.071,0.035-0.106,0.035c-0.036,0-0.106,0-0.142-0.035c-0.071-0.071-0.071-0.142-0.071-0.212
		S39.315,41.122,39.351,41.086z M40.307,41.794c0.071-0.106,0.212-0.106,0.319-0.035c0.106,0.071,0.106,0.212,0.035,0.319
		c0,0.035-0.035,0.035-0.071,0.071c-0.036,0.035-0.071,0.035-0.106,0.035c-0.035,0-0.106,0-0.142-0.035
		c-0.071-0.071-0.071-0.142-0.071-0.213S40.271,41.83,40.307,41.794z M41.228,42.503c0.071-0.106,0.212-0.106,0.319-0.035
		c0.106,0.071,0.106,0.212,0.035,0.318c-0.035,0.036-0.035,0.036-0.071,0.071c-0.036,0.036-0.071,0.036-0.106,0.036
		c-0.035,0-0.106,0-0.142-0.036c-0.071-0.035-0.071-0.142-0.071-0.212C41.228,42.539,41.228,42.503,41.228,42.503z M42.361,43.53
		c-0.036,0-0.106,0-0.142-0.036c-0.071-0.035-0.071-0.142-0.071-0.212c0-0.036,0-0.071,0.035-0.071
		c0.071-0.106,0.212-0.106,0.319-0.036s0.106,0.213,0.036,0.319c0,0.036-0.036,0.036-0.071,0.071
		C42.468,43.53,42.432,43.53,42.361,43.53z M43.459,39.669c-0.071,0-0.142-0.071-0.177-0.142c0-0.036-0.036-0.071-0.036-0.071
		c0-0.106,0.106-0.213,0.213-0.213c0.106,0,0.212,0.106,0.212,0.213c0,0.035-0.036,0.071-0.036,0.071
		C43.601,39.599,43.565,39.669,43.459,39.669z M44.664,39.669c-0.071,0-0.142-0.071-0.177-0.142c0-0.036-0.035-0.071-0.035-0.071
		c0-0.106,0.106-0.213,0.212-0.213c0.106,0,0.212,0.106,0.212,0.213c0,0.035-0.035,0.071-0.035,0.071
		C44.805,39.599,44.734,39.669,44.664,39.669z M45.832,39.669c-0.105,0-0.142-0.071-0.177-0.142c0-0.036-0.036-0.071-0.036-0.071
		c0-0.106,0.107-0.213,0.213-0.213c0.106,0,0.213,0.106,0.213,0.213c0,0.035-0.035,0.071-0.035,0.071
		C45.975,39.599,45.903,39.669,45.832,39.669z M47.001,39.669c-0.106,0-0.142-0.071-0.177-0.142c0-0.036-0.035-0.071-0.035-0.071
		c0-0.106,0.105-0.213,0.212-0.213s0.213,0.106,0.213,0.213c0,0.035-0.036,0.071-0.036,0.071
		C47.178,39.599,47.107,39.669,47.001,39.669z M47.922,47.355c0.071-0.106,0.213-0.106,0.318-0.035
		c0.107,0.07,0.107,0.212,0.036,0.318c-0.036,0.035-0.036,0.035-0.071,0.07c-0.035,0.036-0.07,0.036-0.105,0.036
		s-0.106,0-0.143-0.036c-0.07-0.035-0.07-0.141-0.07-0.212C47.922,47.426,47.922,47.391,47.922,47.355z M49.056,48.418
		c-0.036,0-0.106,0-0.142-0.035c-0.071-0.071-0.071-0.143-0.071-0.213c0-0.035,0-0.07,0.036-0.07
		c0.07-0.106,0.212-0.106,0.318-0.035c0.105,0.07,0.105,0.212,0.035,0.318c0,0.035-0.035,0.035-0.07,0.07
		C49.127,48.383,49.091,48.418,49.056,48.418z M50.543,39.669c-0.105,0-0.142-0.071-0.177-0.142c0-0.036-0.036-0.071-0.036-0.071
		c0-0.106,0.107-0.213,0.213-0.213c0.106,0,0.213,0.106,0.213,0.213c0,0.035-0.035,0.071-0.035,0.071
		C50.721,39.599,50.649,39.669,50.543,39.669z M51.748,39.669c-0.071,0-0.143-0.071-0.178-0.142c0-0.036-0.035-0.071-0.035-0.071
		c0-0.106,0.105-0.213,0.213-0.213c0.105,0,0.212,0.106,0.212,0.213c0,0.035-0.036,0.071-0.036,0.071
		C51.889,39.599,51.818,39.669,51.748,39.669z M52.916,39.669c-0.105,0-0.142-0.071-0.177-0.142c0-0.036-0.036-0.071-0.036-0.071
		c0-0.106,0.107-0.213,0.213-0.213c0.106,0,0.213,0.106,0.213,0.213c0,0.035-0.035,0.071-0.035,0.071
		C53.058,39.599,53.022,39.669,52.916,39.669z M54.085,39.669c-0.106,0-0.142-0.071-0.177-0.142c0-0.036-0.035-0.071-0.035-0.071
		c0-0.106,0.105-0.213,0.212-0.213s0.212,0.106,0.212,0.213c0,0.035-0.035,0.071-0.035,0.071
		C54.262,39.599,54.191,39.669,54.085,39.669z M54.793,60.213c0.071-0.071,0.178-0.035,0.283,0.035c0,0,0.036,0,0.036,0.035
		c0.071,0.106,0.035,0.248-0.036,0.318c-0.035,0.036-0.07,0.036-0.141,0.036c-0.071,0-0.143-0.036-0.178-0.106v-0.035
		C54.723,60.39,54.723,60.283,54.793,60.213z M53.873,60.921c0.07-0.071,0.177-0.035,0.283,0.036c0,0,0.035,0,0.035,0.035
		c0.07,0.105,0.035,0.248-0.035,0.318c-0.035,0.035-0.071,0.035-0.143,0.035c-0.07,0-0.141-0.035-0.177-0.105v-0.036
		C53.766,61.062,53.766,60.957,53.873,60.921z M52.916,61.594c0.07-0.07,0.178-0.035,0.283,0.035c0,0,0.035,0,0.035,0.035
		c0.071,0.107,0.036,0.248-0.035,0.319c-0.035,0.036-0.07,0.036-0.142,0.036s-0.142-0.036-0.177-0.107v-0.035
		C52.811,61.771,52.811,61.664,52.916,61.594z M51.96,62.303c0.071-0.071,0.177-0.036,0.283,0.035c0,0,0.036,0,0.036,0.035
		c0.07,0.106,0.035,0.248-0.036,0.318c-0.035,0.036-0.071,0.036-0.142,0.036s-0.142-0.036-0.178-0.106v-0.035
		C51.854,62.479,51.854,62.373,51.96,62.303z M51.004,63.011c0.07-0.071,0.177-0.036,0.283,0.035c0,0,0.035,0,0.035,0.036
		c0.07,0.105,0.035,0.248-0.035,0.318c-0.035,0.035-0.071,0.035-0.143,0.035c-0.07,0-0.141-0.035-0.176-0.105v-0.036
		C50.897,63.152,50.897,63.046,51.004,63.011z M50.047,63.684c0.071-0.07,0.178-0.035,0.283,0.035c0,0,0.036,0,0.036,0.035
		c0.071,0.107,0.035,0.248-0.036,0.319c-0.035,0.035-0.07,0.035-0.141,0.035c-0.071,0-0.143-0.035-0.178-0.106v-0.035
		C49.941,63.861,49.941,63.754,50.047,63.684z M49.41,55.855c0.105,0.036,0.177,0.178,0.141,0.283
		c-0.035,0.107-0.105,0.143-0.212,0.143c-0.036,0-0.036,0-0.071,0c0,0-0.035,0-0.035-0.035c-0.07-0.036-0.142-0.143-0.105-0.248
		c0.035-0.106,0.141-0.143,0.247-0.143H49.41z"/>
	<path fill="#FEED57" d="M46.328,45.938c0.035,0.036,0.07,0.071,0.07,0.106v-2.161c0-0.673-0.531-1.169-1.168-1.169h-1.169v1.983
		v0.567v0.566l2.337,1.7v-0.035l0,0v-0.531v-0.567v-0.212c0,0.036,0,0.071-0.035,0.071c-0.035,0.035-0.035,0.035-0.07,0.07
		s-0.07,0.035-0.106,0.035c-0.035,0-0.106,0-0.142-0.035c-0.07-0.07-0.07-0.142-0.07-0.213c0-0.035,0-0.07,0.035-0.07
		C46.08,45.867,46.223,45.832,46.328,45.938z M44.097,44.593c0.071-0.106,0.213-0.106,0.319-0.036
		c0.106,0.071,0.106,0.212,0.036,0.319c-0.036,0.036-0.036,0.036-0.071,0.071c-0.036,0.036-0.071,0.036-0.106,0.036
		s-0.106,0-0.142-0.036c-0.071-0.035-0.071-0.142-0.071-0.212C44.097,44.628,44.097,44.593,44.097,44.593z M45.23,45.619
		c-0.036,0-0.106,0-0.142-0.035c-0.071-0.035-0.071-0.141-0.071-0.212c0-0.036,0-0.071,0.036-0.071
		c0.071-0.106,0.212-0.106,0.319-0.036c0.106,0.071,0.106,0.212,0.035,0.318c0,0.035-0.035,0.035-0.071,0.071
		C45.336,45.619,45.266,45.619,45.23,45.619z"/>
	<path fill="#FEED57" d="M59.362,42.68c-0.673,0-1.169,0.531-1.169,1.168v4.18h2.338v-4.18C60.496,43.211,60,42.68,59.362,42.68z"/>
	<path fill="#FEED57" d="M53.377,46.895v-3.01c0-0.673-0.531-1.169-1.169-1.169h-1.169v5.349h1.169
		C52.881,48.028,53.377,47.497,53.377,46.895z"/>
</g>
</svg>
